<svg width="205" height="46" viewBox="0 0 205 46" fill="none" xmlns="http://www.w3.org/2000/svg">
<path d="M19.832 12.352L22.232 17.68L7.064 24.016L22.232 30.16L19.832 35.68L0.632004 27.376V20.704L19.832 12.352Z" fill="#141414"/>
<path d="M41.1226 0.83197L47.7466 2.31997L36.4666 45.376L29.7946 43.84L41.1226 0.83197Z" fill="#141414"/>
<path d="M57.6601 12.352L76.8601 20.704V27.376L57.6601 35.68L55.2601 30.16L70.4281 24.016L55.2601 17.68L57.6601 12.352Z" fill="#141414"/>
<path d="M105.701 6.73597V33.76H118.661L117.845 40H97.8294V6.73597H105.701Z" fill="#141414"/>
<path d="M145.496 40H138.92L138.584 36.784C136.728 39.472 134.152 40.816 130.856 40.816C128.52 40.816 126.744 40.112 125.528 38.704C124.344 37.296 123.752 35.328 123.752 32.8V14.512H131.336V31.84C131.336 33.088 131.528 33.968 131.912 34.48C132.328 34.96 132.952 35.2 133.784 35.2C135.384 35.2 136.76 34.208 137.912 32.224V14.512H145.496V40Z" fill="#141414"/>
<path d="M174.116 32.608C174.116 33.568 174.244 34.272 174.5 34.72C174.788 35.168 175.236 35.504 175.844 35.728L174.26 40.672C172.692 40.544 171.412 40.208 170.42 39.664C169.428 39.088 168.66 38.192 168.116 36.976C166.452 39.536 163.892 40.816 160.436 40.816C157.908 40.816 155.892 40.08 154.388 38.608C152.884 37.136 152.132 35.216 152.132 32.848C152.132 30.064 153.156 27.936 155.204 26.464C157.252 24.992 160.212 24.256 164.084 24.256H166.676V23.152C166.676 21.648 166.356 20.624 165.716 20.08C165.076 19.504 163.956 19.216 162.356 19.216C161.524 19.216 160.516 19.344 159.332 19.6C158.148 19.824 156.932 20.144 155.684 20.56L153.956 15.568C155.556 14.96 157.188 14.496 158.852 14.176C160.548 13.856 162.116 13.696 163.556 13.696C167.204 13.696 169.876 14.448 171.572 15.952C173.268 17.456 174.116 19.712 174.116 22.72V32.608ZM162.644 35.392C164.372 35.392 165.716 34.576 166.676 32.944V28.432H164.804C163.076 28.432 161.78 28.736 160.916 29.344C160.084 29.952 159.668 30.896 159.668 32.176C159.668 33.2 159.924 34 160.436 34.576C160.98 35.12 161.716 35.392 162.644 35.392Z" fill="#141414"/>
<path d="M197.485 13.696C199.693 13.696 201.421 14.368 202.669 15.712C203.917 17.056 204.541 18.944 204.541 21.376V40H196.957V22.672C196.957 21.392 196.749 20.512 196.333 20.032C195.949 19.52 195.357 19.264 194.557 19.264C193.021 19.264 191.549 20.368 190.141 22.576V40H182.557V14.512H189.181L189.709 17.536C190.797 16.256 191.965 15.296 193.213 14.656C194.493 14.016 195.917 13.696 197.485 13.696Z" fill="#141414"/>
</svg>
